<svg xmlns="http://www.w3.org/2000/svg" viewBox="-110 -110 220 220" width="720" height="720">
<path d="M -18.961,52.079 L -23.290,52.079 L -23.290,36.554 L -43.301,25.000 L -54.560,31.500 L -54.560,58.500 L -43.323,64.988 L -43.323,43.758 L -45.170,42.251 L -46.170,40.086 L -46.122,37.702 L -45.034,35.581 L -43.126,34.150 L -40.785,33.700 L -38.483,34.320 L -36.685,35.887 L -35.755,38.082 L -35.881,40.463 L -37.037,42.549 L -38.990,43.917 L -38.974,67.498 L -23.816,76.250 L -2.165,63.750 L -2.165,48.750 L -18.961,39.053 L -18.961,52.079 Z" fill="#5B6675" stroke="none"/>
<path d="M 56.355,-17.525 L 54.454,-13.623 L 43.301,-20.044 L 43.301,12.831 L 46.721,10.856 L 48.525,14.075 L 43.301,17.163 L 43.301,19.865 L 58.895,29.003 L 77.942,18.027 L 77.942,-2.488 L 57.236,9.467 L 55.071,5.737 L 77.942,-7.488 L 77.942,-18.008 L 54.560,-31.500 L 43.282,-25.011 L 56.355,-17.525 Z" fill="#5B6675" stroke="none"/>
<path d="M 23.356,52.248 L 19.072,52.059 L 19.072,38.989 L 2.165,48.744 L 2.165,63.750 L 23.816,76.250 L 39.014,67.475 L 39.000,43.855 L 43.330,43.829 L 43.342,64.976 L 54.560,58.500 L 54.561,31.501 L 43.301,24.872 L 23.356,36.447 L 23.356,52.248 Z" fill="#5B6675" stroke="none"/>
<path d="M -54.385,-13.455 L -56.342,-17.570 L -43.301,-25.000 L -54.567,-31.504 L -77.942,-18.009 L -77.942,-7.449 L -55.074,5.739 L -57.238,9.491 L -77.942,-2.449 L -77.942,18.016 L -58.892,29.001 L -43.301,20.020 L -43.301,17.189 L -48.582,14.123 L -46.725,10.881 L -43.301,12.856 L -43.301,-19.959 L -54.385,-13.455 Z" fill="#5B6675" stroke="none"/>
<path d="M -34.644,-4.843 L -36.340,-5.284 L -38.087,-5.148 L -39.694,-4.450 L -40.987,-3.267 L -41.823,-1.727 L -42.112,0.001 L -41.822,1.730 L -40.985,3.269 L -39.692,4.452 L -38.084,5.149 L -36.337,5.284 L -34.641,4.842 L -34.641,20.023 L -2.165,38.751 L -2.165,25.660 L -23.305,13.455 L -23.305,-13.455 L -2.165,-25.660 L -2.165,-38.750 L -34.644,-19.998 L -34.644,-4.843 Z" fill="#5B6675" stroke="none"/>
<path d="M 43.297,-49.844 L 38.968,-49.841 L 38.970,-67.500 L 23.797,-76.261 L 2.165,-63.750 L 2.165,-48.750 L 18.833,-39.126 L 18.833,-52.159 L 23.142,-52.148 L 23.142,-36.639 L 39.137,-27.404 L 55.148,-36.646 L 55.141,-58.164 L 43.300,-65.001 L 43.297,-49.844 Z" fill="#5B6675" stroke="none"/>
<path d="M -38.389,-49.843 L -42.720,-49.843 L -42.720,-65.336 L -54.561,-58.499 L -54.566,-36.504 L -39.002,-27.482 L -23.291,-36.553 L -23.291,-52.158 L -18.960,-52.158 L -18.960,-39.053 L -2.165,-48.750 L -2.165,-63.750 L -23.816,-76.250 L -38.389,-67.836 L -38.389,-49.843 Z" fill="#5B6675" stroke="none"/>
<path d="M 34.835,4.924 L 36.529,5.297 L 38.253,5.103 L 39.823,4.363 L 41.069,3.156 L 41.859,1.612 L 42.109,-0.105 L 41.791,-1.811 L 40.940,-3.323 L 39.647,-4.479 L 38.050,-5.156 L 36.319,-5.282 L 34.641,-4.842 L 34.641,-20.000 L 2.165,-38.750 L 2.165,-25.660 L 23.305,-13.455 L 23.305,13.455 L 2.165,25.660 L 2.165,38.750 L 34.835,19.888 L 34.835,4.924 Z" fill="#5B6675" stroke="none"/>
<path d="M -2.165,38.751 L -2.165,25.660 L -23.305,13.455 L -23.305,-13.455 L -2.165,-25.660 L -2.165,-38.750 L -34.644,-19.998 L -34.644,20.023 L -2.165,38.751 Z" fill="#5B6675" stroke="none"/>
<circle cx="0" cy="0" r="86.103" fill="none" stroke="#5B6675" stroke-width="2.5"/>
<circle cx="0" cy="0" r="89.000" fill="none" stroke="#5B6675" stroke-width="2.5"/>
<path d="M 0.000,21.787 L -18.868,10.893 L -18.868,-10.893 L 0.000,-21.787 L 18.868,-10.893 L 18.868,10.893 L 0.000,21.787 Z" fill="none" stroke="#5B6675" stroke-width="2.5" stroke-linejoin="round"/>
<path d="M -0.007,-2.496 L 12.372,-9.643 L 0.000,-16.780 L -12.374,-9.636 L -0.007,-2.496 Z" fill="none" stroke="#5B6675" stroke-width="2.5" stroke-linejoin="round"/>
<path d="M 14.538,8.409 L 14.538,-5.893 L 2.165,1.250 L 2.165,15.554 L 14.538,8.409 Z" fill="none" stroke="#5B6675" stroke-width="2.5" stroke-linejoin="round"/>
<path d="M -14.538,-5.893 L -14.538,8.393 L -2.165,15.554 L -2.165,1.250 L -14.538,-5.893 Z" fill="none" stroke="#5B6675" stroke-width="2.5" stroke-linejoin="round"/>
<circle cx="21.000" cy="-57.000" r="5.3" fill="#5B6675"/><circle cx="41.136" cy="-45.000" r="5.3" fill="#5B6675"/>
<circle cx="59.756" cy="-13.455" r="5.3" fill="#5B6675"/><circle cx="-21.125" cy="-57.000" r="5.3" fill="#5B6675"/>
<circle cx="-40.555" cy="-45.000" r="5.3" fill="#5B6675"/><circle cx="-36.807" cy="-0.000" r="5.3" fill="#5B6675"/>
<circle cx="-51.962" cy="10.034" r="5.3" fill="#5B6675"/><circle cx="-59.690" cy="-13.455" r="5.3" fill="#5B6675"/>
<circle cx="41.136" cy="39.000" r="5.3" fill="#5B6675"/><circle cx="51.962" cy="10.034" r="5.3" fill="#5B6675"/>
<circle cx="36.806" cy="-0.000" r="5.3" fill="#5B6675"/><circle cx="-40.979" cy="39.000" r="5.3" fill="#5B6675"/>
<circle cx="-21.125" cy="56.803" r="5.3" fill="#5B6675"/><circle cx="21.000" cy="57.000" r="5.3" fill="#5B6675"/>
</svg>