<svg xmlns="http://www.w3.org/2000/svg" xmlns:xlink="http://www.w3.org/1999/xlink" width="400" zoomAndPan="magnify" viewBox="0 0 300 299.999988" height="400" preserveAspectRatio="xMidYMid meet" version="1.0"><defs><g/><clipPath id="50db0904a9"><path d="M 106.105469 0.992188 L 129 0.992188 L 129 48.09375 L 106.105469 48.09375 Z M 106.105469 0.992188 " clip-rule="nonzero"/></clipPath><clipPath id="7a712593d5"><path d="M 129 0.992188 L 151.929688 0.992188 L 151.929688 48.09375 L 129 48.09375 Z M 129 0.992188 " clip-rule="nonzero"/></clipPath><clipPath id="b416c243a6"><path d="M 213 57 L 258.839844 57 L 258.839844 89 L 213 89 Z M 213 57 " clip-rule="nonzero"/></clipPath><clipPath id="4e32d315a1"><path d="M 0.238281 24 L 1 24 L 1 25 L 0.238281 25 Z M 0.238281 24 " clip-rule="nonzero"/></clipPath><clipPath id="ba370913da"><rect x="0" width="46" y="0" height="32"/></clipPath><clipPath id="a10447cab4"><rect x="0" width="259" y="0" height="103"/></clipPath></defs><g transform="matrix(1, 0, 0, 1, 21, 98)"><g clip-path="url(#a10447cab4)"><g fill="#bfd4e6" fill-opacity="1"><g transform="translate(2.406109, 99.283353)"><g><path d="M 13.9375 0 L 12.8125 0 L 12.8125 -6.796875 L 7.890625 0 L 7.3125 0 L 2.40625 -6.796875 L 2.40625 0 L 1.265625 0 L 1.265625 -9.109375 L 2.125 -9.109375 L 7.609375 -1.53125 L 13.078125 -9.109375 L 13.9375 -9.109375 Z M 13.9375 0 "/></g></g></g><g fill="#bfd4e6" fill-opacity="1"><g transform="translate(18.358491, 99.283353)"><g><path d="M 9.046875 0 C 9.828125 0 10.492188 -0.273438 11.046875 -0.828125 C 11.597656 -1.378906 11.875 -2.046875 11.875 -2.828125 L 11.875 -9.109375 L 10.734375 -9.109375 L 10.734375 -2.828125 C 10.734375 -2.359375 10.566406 -1.957031 10.234375 -1.625 C 9.910156 -1.289062 9.515625 -1.125 9.046875 -1.125 L 3.78125 -1.125 C 3.3125 -1.125 2.910156 -1.289062 2.578125 -1.625 C 2.242188 -1.957031 2.078125 -2.359375 2.078125 -2.828125 L 2.078125 -9.109375 L 0.953125 -9.109375 L 0.953125 -2.828125 C 0.953125 -2.046875 1.226562 -1.378906 1.78125 -0.828125 C 2.332031 -0.273438 3 0 3.78125 0 Z M 9.046875 0 "/></g></g></g><g fill="#bfd4e6" fill-opacity="1"><g transform="translate(31.923795, 99.283353)"><g><path d="M 9.765625 0 L 9.765625 -1.125 L 2.40625 -1.125 L 2.40625 -9.109375 L 1.265625 -9.109375 L 1.265625 0 Z M 9.765625 0 "/></g></g></g><g fill="#bfd4e6" fill-opacity="1"><g transform="translate(40.968882, 99.283353)"><g><path d="M 5.796875 0 L 4.671875 0 L 4.671875 -7.96875 L 0.1875 -7.96875 L 0.1875 -9.109375 L 10.28125 -9.109375 L 10.28125 -7.96875 L 5.796875 -7.96875 Z M 5.796875 0 "/></g></g></g><g fill="#bfd4e6" fill-opacity="1"><g transform="translate(52.185203, 99.283353)"><g><path d="M 2.40625 0 L 2.40625 -9.109375 L 1.265625 -9.109375 L 1.265625 0 Z M 2.40625 0 "/></g></g></g><g fill="#bfd4e6" fill-opacity="1"><g transform="translate(56.595811, 99.283353)"><g><path d="M 0.640625 -4.171875 L 0.640625 -4.921875 L 4.609375 -4.921875 L 4.609375 -4.171875 Z M 0.640625 -4.171875 "/></g></g></g><g fill="#bfd4e6" fill-opacity="1"><g transform="translate(62.574529, 99.283353)"><g><path d="M 13.09375 0 L 11.734375 0 L 10.34375 -2.0625 L 2.9375 -2.0625 L 1.5625 0 L 0.1875 0 L 6.34375 -9.109375 L 6.9375 -9.109375 Z M 9.578125 -3.1875 L 6.640625 -7.53125 L 3.703125 -3.1875 Z M 9.578125 -3.1875 "/></g></g></g><g fill="#bfd4e6" fill-opacity="1"><g transform="translate(75.650986, 99.283353)"><g><path d="M 9.046875 0 C 9.804688 0 10.472656 -0.273438 11.046875 -0.828125 C 11.585938 -1.378906 11.863281 -2.046875 11.875 -2.828125 L 11.875 -3.796875 C 11.875 -4.046875 11.785156 -4.253906 11.609375 -4.421875 C 11.429688 -4.597656 11.222656 -4.6875 10.984375 -4.6875 L 6.40625 -4.6875 L 6.40625 -3.5625 L 10.734375 -3.5625 L 10.734375 -2.828125 C 10.734375 -2.367188 10.570312 -1.96875 10.25 -1.625 C 9.894531 -1.289062 9.492188 -1.125 9.046875 -1.125 L 3.78125 -1.125 C 3.3125 -1.125 2.910156 -1.289062 2.578125 -1.625 C 2.242188 -1.957031 2.078125 -2.359375 2.078125 -2.828125 L 2.078125 -6.28125 C 2.078125 -6.75 2.242188 -7.148438 2.578125 -7.484375 C 2.910156 -7.816406 3.3125 -7.984375 3.78125 -7.984375 L 9.046875 -7.984375 C 9.515625 -7.984375 9.910156 -7.816406 10.234375 -7.484375 C 10.566406 -7.148438 10.734375 -6.75 10.734375 -6.28125 L 11.875 -6.28125 C 11.875 -7.0625 11.597656 -7.726562 11.046875 -8.28125 C 10.492188 -8.832031 9.828125 -9.109375 9.046875 -9.109375 L 3.78125 -9.109375 C 3 -9.109375 2.332031 -8.832031 1.78125 -8.28125 C 1.226562 -7.726562 0.953125 -7.0625 0.953125 -6.28125 L 0.953125 -2.828125 C 0.953125 -2.046875 1.226562 -1.378906 1.78125 -0.828125 C 2.332031 -0.273438 3 0 3.78125 0 Z M 9.046875 0 "/></g></g></g><g fill="#bfd4e6" fill-opacity="1"><g transform="translate(89.216294, 99.283353)"><g><path d="M 11.625 0 L 1.265625 0 L 1.265625 -9.109375 L 11.625 -9.109375 L 11.625 -7.984375 L 2.40625 -7.984375 L 2.40625 -5.109375 L 10.5625 -5.109375 L 10.5625 -3.984375 L 2.40625 -3.984375 L 2.40625 -1.125 L 11.625 -1.125 Z M 11.625 0 "/></g></g></g><g fill="#bfd4e6" fill-opacity="1"><g transform="translate(102.534003, 99.283353)"><g><path d="M 12.1875 0 L 11.421875 0 L 2.40625 -7.34375 L 2.40625 0 L 1.265625 0 L 1.265625 -9.109375 L 2.03125 -9.109375 L 11.0625 -1.75 L 11.0625 -9.109375 L 12.1875 -9.109375 Z M 12.1875 0 "/></g></g></g><g fill="#bfd4e6" fill-opacity="1"><g transform="translate(116.734169, 99.283353)"><g><path d="M 5.796875 0 L 4.671875 0 L 4.671875 -7.96875 L 0.1875 -7.96875 L 0.1875 -9.109375 L 10.28125 -9.109375 L 10.28125 -7.96875 L 5.796875 -7.96875 Z M 5.796875 0 "/></g></g></g><g fill="#bfd4e6" fill-opacity="1"><g transform="translate(127.950486, 99.283353)"><g/></g></g><g fill="#bfd4e6" fill-opacity="1"><g transform="translate(131.916697, 99.283353)"><g><path d="M 13.09375 0 L 11.734375 0 L 10.34375 -2.0625 L 2.9375 -2.0625 L 1.5625 0 L 0.1875 0 L 6.34375 -9.109375 L 6.9375 -9.109375 Z M 9.578125 -3.1875 L 6.640625 -7.53125 L 3.703125 -3.1875 Z M 9.578125 -3.1875 "/></g></g></g><g fill="#bfd4e6" fill-opacity="1"><g transform="translate(144.993154, 99.283353)"><g><path d="M 9.046875 0 C 9.828125 0 10.492188 -0.273438 11.046875 -0.828125 C 11.597656 -1.378906 11.875 -2.046875 11.875 -2.828125 L 11.875 -9.109375 L 10.734375 -9.109375 L 10.734375 -2.828125 C 10.734375 -2.359375 10.566406 -1.957031 10.234375 -1.625 C 9.910156 -1.289062 9.515625 -1.125 9.046875 -1.125 L 3.78125 -1.125 C 3.3125 -1.125 2.910156 -1.289062 2.578125 -1.625 C 2.242188 -1.957031 2.078125 -2.359375 2.078125 -2.828125 L 2.078125 -9.109375 L 0.953125 -9.109375 L 0.953125 -2.828125 C 0.953125 -2.046875 1.226562 -1.378906 1.78125 -0.828125 C 2.332031 -0.273438 3 0 3.78125 0 Z M 9.046875 0 "/></g></g></g><g fill="#bfd4e6" fill-opacity="1"><g transform="translate(158.558458, 99.283353)"><g><path d="M 5.796875 0 L 4.671875 0 L 4.671875 -7.96875 L 0.1875 -7.96875 L 0.1875 -9.109375 L 10.28125 -9.109375 L 10.28125 -7.96875 L 5.796875 -7.96875 Z M 5.796875 0 "/></g></g></g><g fill="#bfd4e6" fill-opacity="1"><g transform="translate(169.393851, 99.283353)"><g><path d="M 9.046875 0 C 9.828125 0 10.492188 -0.273438 11.046875 -0.828125 C 11.597656 -1.378906 11.875 -2.046875 11.875 -2.828125 L 11.875 -6.28125 C 11.875 -7.0625 11.597656 -7.726562 11.046875 -8.28125 C 10.492188 -8.832031 9.828125 -9.109375 9.046875 -9.109375 L 3.78125 -9.109375 C 3 -9.109375 2.332031 -8.832031 1.78125 -8.28125 C 1.226562 -7.726562 0.953125 -7.0625 0.953125 -6.28125 L 0.953125 -2.828125 C 0.953125 -2.046875 1.226562 -1.378906 1.78125 -0.828125 C 2.332031 -0.273438 3 0 3.78125 0 Z M 9.046875 -1.125 L 3.78125 -1.125 C 3.3125 -1.125 2.910156 -1.289062 2.578125 -1.625 C 2.242188 -1.957031 2.078125 -2.359375 2.078125 -2.828125 L 2.078125 -6.28125 C 2.078125 -6.75 2.242188 -7.148438 2.578125 -7.484375 C 2.910156 -7.816406 3.3125 -7.984375 3.78125 -7.984375 L 9.046875 -7.984375 C 9.515625 -7.984375 9.910156 -7.816406 10.234375 -7.484375 C 10.566406 -7.148438 10.734375 -6.75 10.734375 -6.28125 L 10.734375 -2.828125 C 10.734375 -2.359375 10.566406 -1.957031 10.234375 -1.625 C 9.910156 -1.289062 9.515625 -1.125 9.046875 -1.125 Z M 9.046875 -1.125 "/></g></g></g><g fill="#bfd4e6" fill-opacity="1"><g transform="translate(182.959164, 99.283353)"><g><path d="M 13.9375 0 L 12.8125 0 L 12.8125 -6.796875 L 7.890625 0 L 7.3125 0 L 2.40625 -6.796875 L 2.40625 0 L 1.265625 0 L 1.265625 -9.109375 L 2.125 -9.109375 L 7.609375 -1.53125 L 13.078125 -9.109375 L 13.9375 -9.109375 Z M 13.9375 0 "/></g></g></g><g fill="#bfd4e6" fill-opacity="1"><g transform="translate(198.911549, 99.283353)"><g><path d="M 13.09375 0 L 11.734375 0 L 10.34375 -2.0625 L 2.9375 -2.0625 L 1.5625 0 L 0.1875 0 L 6.34375 -9.109375 L 6.9375 -9.109375 Z M 9.578125 -3.1875 L 6.640625 -7.53125 L 3.703125 -3.1875 Z M 9.578125 -3.1875 "/></g></g></g><g fill="#bfd4e6" fill-opacity="1"><g transform="translate(212.940302, 99.283353)"><g><path d="M 5.796875 0 L 4.671875 0 L 4.671875 -7.96875 L 0.1875 -7.96875 L 0.1875 -9.109375 L 10.28125 -9.109375 L 10.28125 -7.96875 L 5.796875 -7.96875 Z M 5.796875 0 "/></g></g></g><g fill="#bfd4e6" fill-opacity="1"><g transform="translate(224.15661, 99.283353)"><g><path d="M 2.40625 0 L 2.40625 -9.109375 L 1.265625 -9.109375 L 1.265625 0 Z M 2.40625 0 "/></g></g></g><g fill="#bfd4e6" fill-opacity="1"><g transform="translate(228.567235, 99.283353)"><g><path d="M 9.046875 0 C 9.828125 0 10.492188 -0.273438 11.046875 -0.828125 C 11.597656 -1.378906 11.875 -2.046875 11.875 -2.828125 L 11.875 -6.28125 C 11.875 -7.0625 11.597656 -7.726562 11.046875 -8.28125 C 10.492188 -8.832031 9.828125 -9.109375 9.046875 -9.109375 L 3.78125 -9.109375 C 3 -9.109375 2.332031 -8.832031 1.78125 -8.28125 C 1.226562 -7.726562 0.953125 -7.0625 0.953125 -6.28125 L 0.953125 -2.828125 C 0.953125 -2.046875 1.226562 -1.378906 1.78125 -0.828125 C 2.332031 -0.273438 3 0 3.78125 0 Z M 9.046875 -1.125 L 3.78125 -1.125 C 3.3125 -1.125 2.910156 -1.289062 2.578125 -1.625 C 2.242188 -1.957031 2.078125 -2.359375 2.078125 -2.828125 L 2.078125 -6.28125 C 2.078125 -6.75 2.242188 -7.148438 2.578125 -7.484375 C 2.910156 -7.816406 3.3125 -7.984375 3.78125 -7.984375 L 9.046875 -7.984375 C 9.515625 -7.984375 9.910156 -7.816406 10.234375 -7.484375 C 10.566406 -7.148438 10.734375 -6.75 10.734375 -6.28125 L 10.734375 -2.828125 C 10.734375 -2.359375 10.566406 -1.957031 10.234375 -1.625 C 9.910156 -1.289062 9.515625 -1.125 9.046875 -1.125 Z M 9.046875 -1.125 "/></g></g></g><g fill="#bfd4e6" fill-opacity="1"><g transform="translate(242.13253, 99.283353)"><g><path d="M 12.1875 0 L 11.421875 0 L 2.40625 -7.34375 L 2.40625 0 L 1.265625 0 L 1.265625 -9.109375 L 2.03125 -9.109375 L 11.0625 -1.75 L 11.0625 -9.109375 L 12.1875 -9.109375 Z M 12.1875 0 "/></g></g></g><path fill="#008cba" d="M 124.023438 26.660156 L 128.996094 29.527344 L 133.976562 26.660156 L 133.976562 21.375 L 128.996094 18.5 L 124.023438 21.375 Z M 124.023438 26.660156 " fill-opacity="1" fill-rule="evenodd"/><g clip-path="url(#50db0904a9)"><path fill="#008cba" d="M 128.292969 30.753906 L 122.613281 27.472656 L 122.613281 20.558594 L 128.292969 17.273438 L 128.292969 3.882812 L 123.285156 0.996094 L 118.070312 4.003906 L 118.070312 9.894531 C 118.714844 10.15625 119.167969 10.789062 119.167969 11.527344 C 119.167969 12.5 118.375 13.289062 117.402344 13.289062 C 116.433594 13.289062 115.640625 12.5 115.640625 11.527344 C 115.640625 10.820312 116.058594 10.210938 116.660156 9.929688 L 116.660156 4.820312 L 112.054688 7.480469 L 112.054688 13.882812 L 117.375 16.957031 L 122.613281 13.933594 L 122.613281 8.386719 C 122.019531 8.105469 121.609375 7.503906 121.609375 6.800781 C 121.609375 5.828125 122.402344 5.035156 123.375 5.035156 C 124.347656 5.035156 125.136719 5.828125 125.136719 6.800781 C 125.136719 7.542969 124.671875 8.183594 124.023438 8.441406 L 124.023438 14.75 L 118.070312 18.183594 L 118.070312 24.414062 C 118.691406 24.691406 119.125 25.3125 119.125 26.03125 C 119.125 27.003906 118.339844 27.792969 117.363281 27.792969 C 116.390625 27.792969 115.605469 27.003906 115.605469 26.03125 C 115.605469 25.3125 116.039062 24.691406 116.660156 24.414062 L 116.660156 18.175781 L 111.453125 15.171875 L 106.105469 18.257812 L 106.105469 23.449219 L 111.257812 20.472656 L 111.253906 20.355469 C 111.253906 19.382812 112.042969 18.59375 113.015625 18.59375 C 113.988281 18.59375 114.78125 19.382812 114.78125 20.355469 C 114.78125 21.328125 113.988281 22.117188 113.015625 22.117188 C 112.59375 22.117188 112.207031 21.972656 111.910156 21.726562 L 106.105469 25.078125 L 106.105469 30.933594 L 111.453125 34.023438 L 115.882812 31.46875 L 111.808594 29.117188 C 111.492188 29.410156 111.070312 29.585938 110.609375 29.585938 C 109.636719 29.585938 108.847656 28.796875 108.847656 27.824219 C 108.847656 26.851562 109.636719 26.0625 110.609375 26.0625 C 111.582031 26.0625 112.367188 26.847656 112.371094 27.8125 L 124.023438 34.535156 L 124.023438 41.882812 C 124.667969 42.144531 125.125 42.777344 125.125 43.515625 C 125.125 44.488281 124.335938 45.28125 123.363281 45.28125 C 122.390625 45.28125 121.597656 44.488281 121.597656 43.515625 C 121.597656 42.8125 122.015625 42.203125 122.613281 41.925781 L 122.613281 35.351562 L 117.292969 32.28125 L 112.054688 35.308594 L 112.054688 41.515625 L 116.660156 44.171875 L 116.660156 38.285156 C 116.039062 38.015625 115.605469 37.394531 115.605469 36.675781 C 115.605469 35.703125 116.398438 34.910156 117.367188 34.910156 C 118.339844 34.910156 119.132812 35.703125 119.132812 36.675781 C 119.132812 37.394531 118.691406 38.023438 118.070312 38.292969 L 118.070312 44.988281 L 123.414062 48.074219 L 128.292969 45.257812 Z M 128.292969 30.753906 " fill-opacity="1" fill-rule="evenodd"/></g><g clip-path="url(#7a712593d5)"><path fill="#1e3a8a" d="M 129.707031 30.753906 L 129.707031 45.257812 L 134.578125 48.074219 L 139.925781 44.988281 L 139.925781 38.292969 C 139.300781 38.023438 138.867188 37.394531 138.867188 36.675781 C 138.867188 35.703125 139.652344 34.910156 140.625 34.910156 C 141.601562 34.910156 142.386719 35.703125 142.386719 36.675781 C 142.386719 37.394531 141.953125 38.015625 141.339844 38.285156 L 141.339844 44.171875 L 145.945312 41.515625 L 145.945312 35.308594 L 140.707031 32.28125 L 135.386719 35.351562 L 135.386719 41.925781 C 135.984375 42.203125 136.394531 42.8125 136.394531 43.515625 C 136.394531 44.488281 135.609375 45.28125 134.632812 45.28125 C 133.660156 45.28125 132.875 44.488281 132.875 43.515625 C 132.875 42.777344 133.332031 42.144531 133.976562 41.882812 L 133.976562 34.535156 L 145.628906 27.8125 C 145.632812 26.847656 146.417969 26.0625 147.382812 26.0625 C 148.363281 26.0625 149.148438 26.851562 149.148438 27.824219 C 149.148438 28.796875 148.363281 29.585938 147.382812 29.585938 C 146.921875 29.585938 146.507812 29.410156 146.191406 29.117188 L 142.117188 31.46875 L 146.542969 34.023438 L 151.894531 30.933594 L 151.894531 25.078125 L 146.089844 21.726562 C 145.785156 21.972656 145.398438 22.117188 144.984375 22.117188 C 144.011719 22.117188 143.21875 21.328125 143.21875 20.355469 C 143.21875 19.382812 144.011719 18.59375 144.984375 18.59375 C 145.957031 18.59375 146.746094 19.382812 146.746094 20.355469 L 146.742188 20.472656 L 151.894531 23.449219 L 151.894531 18.257812 L 146.542969 15.171875 L 141.339844 18.175781 L 141.339844 24.414062 C 141.960938 24.691406 142.394531 25.3125 142.394531 26.03125 C 142.394531 27.003906 141.601562 27.792969 140.628906 27.792969 C 139.660156 27.792969 138.867188 27.003906 138.867188 26.03125 C 138.867188 25.3125 139.300781 24.691406 139.925781 24.414062 L 139.925781 18.183594 L 133.976562 14.75 L 133.976562 8.441406 C 133.324219 8.183594 132.863281 7.542969 132.863281 6.800781 C 132.863281 5.828125 133.652344 5.035156 134.625 5.035156 C 135.597656 5.035156 136.390625 5.828125 136.390625 6.800781 C 136.390625 7.503906 135.980469 8.105469 135.386719 8.386719 L 135.386719 13.933594 L 140.625 16.957031 L 145.945312 13.882812 L 145.945312 7.480469 L 141.339844 4.820312 L 141.339844 9.929688 C 141.9375 10.210938 142.351562 10.820312 142.351562 11.527344 C 142.351562 12.5 141.5625 13.289062 140.589844 13.289062 C 139.617188 13.289062 138.828125 12.5 138.828125 11.527344 C 138.828125 10.789062 139.285156 10.15625 139.925781 9.894531 L 139.925781 4.003906 L 134.707031 0.996094 L 129.707031 3.882812 L 129.707031 17.273438 L 135.386719 20.558594 L 135.386719 27.472656 Z M 129.707031 30.753906 " fill-opacity="1" fill-rule="evenodd"/></g><g fill="#ffffff" fill-opacity="1"><g transform="translate(0.527504, 82.724658)"><g><path d="M 5.859375 0 L 2.734375 0 L 2.734375 -19.65625 L 24.59375 -19.65625 L 24.59375 -16.53125 L 5.859375 -16.53125 L 5.859375 -11.390625 L 22.375 -11.390625 L 22.375 -8.265625 L 5.859375 -8.265625 Z M 5.859375 0 "/></g></g></g><g fill="#ffffff" fill-opacity="1"><g transform="translate(27.03858, 82.724658)"><g><path d="M 20.734375 0 L 20.734375 -3.125 L 5.859375 -3.125 L 5.859375 -19.65625 L 2.734375 -19.65625 L 2.734375 0 Z M 20.734375 0 "/></g></g></g><g fill="#ffffff" fill-opacity="1"><g transform="translate(48.589344, 82.724658)"><g><path d="M 19.21875 0 C 20.945312 0 22.421875 -0.609375 23.640625 -1.828125 C 24.859375 -3.046875 25.46875 -4.519531 25.46875 -6.25 L 25.46875 -13.421875 C 25.46875 -15.128906 24.859375 -16.59375 23.640625 -17.8125 C 22.421875 -19.039062 20.945312 -19.65625 19.21875 -19.65625 L 8.296875 -19.65625 C 6.578125 -19.65625 5.109375 -19.039062 3.890625 -17.8125 C 2.671875 -16.59375 2.0625 -15.128906 2.0625 -13.421875 L 2.0625 -6.25 C 2.0625 -4.519531 2.671875 -3.046875 3.890625 -1.828125 C 5.109375 -0.609375 6.578125 0 8.296875 0 Z M 19.21875 -3.125 L 8.296875 -3.125 C 7.429688 -3.125 6.691406 -3.425781 6.078125 -4.03125 C 5.472656 -4.644531 5.171875 -5.382812 5.171875 -6.25 L 5.171875 -13.421875 C 5.171875 -14.273438 5.472656 -15.003906 6.078125 -15.609375 C 6.691406 -16.222656 7.429688 -16.53125 8.296875 -16.53125 L 19.21875 -16.53125 C 20.082031 -16.53125 20.816406 -16.222656 21.421875 -15.609375 C 22.035156 -15.003906 22.34375 -14.273438 22.34375 -13.421875 L 22.34375 -6.25 C 22.34375 -5.382812 22.035156 -4.644531 21.421875 -4.03125 C 20.816406 -3.425781 20.082031 -3.125 19.21875 -3.125 Z M 19.21875 -3.125 "/></g></g></g><g fill="#ffffff" fill-opacity="1"><g transform="translate(73.922006, 82.724658)"><g><path d="M 28.140625 0 L 26.1875 0 L 18.875 -14.609375 L 11.546875 0 L 9.609375 0 L 0.40625 -19.65625 L 3.84375 -19.65625 L 10.640625 -5.140625 L 17.90625 -19.65625 L 19.84375 -19.65625 L 27.109375 -5.140625 L 33.90625 -19.65625 L 37.359375 -19.65625 Z M 28.140625 0 "/></g></g></g><g fill="#ffffff" fill-opacity="1"><g transform="translate(111.545824, 82.724658)"><g><path d="M 12.421875 0 L 9.296875 0 L 9.296875 -16.53125 L 0.40625 -16.53125 L 0.40625 -19.65625 L 21.328125 -19.65625 L 21.328125 -16.53125 L 12.421875 -16.53125 Z M 12.421875 0 "/></g></g></g><g fill="#ffffff" fill-opacity="1"><g transform="translate(133.151398, 82.724658)"><g><path d="M 24.59375 0 L 2.734375 0 L 2.734375 -19.65625 L 24.59375 -19.65625 L 24.59375 -16.53125 L 5.859375 -16.53125 L 5.859375 -11.390625 L 22.375 -11.390625 L 22.375 -8.265625 L 5.859375 -8.265625 L 5.859375 -3.125 L 24.59375 -3.125 Z M 24.59375 0 "/></g></g></g><g fill="#ffffff" fill-opacity="1"><g transform="translate(159.662476, 82.724658)"><g><path d="M 19.21875 0 C 20.945312 0 22.421875 -0.609375 23.640625 -1.828125 C 24.859375 -3.046875 25.46875 -4.519531 25.46875 -6.25 L 22.34375 -6.25 C 22.34375 -5.382812 22.035156 -4.644531 21.421875 -4.03125 C 20.816406 -3.425781 20.082031 -3.125 19.21875 -3.125 L 8.296875 -3.125 C 7.429688 -3.125 6.691406 -3.425781 6.078125 -4.03125 C 5.472656 -4.644531 5.171875 -5.382812 5.171875 -6.25 L 5.171875 -13.421875 C 5.171875 -14.273438 5.472656 -15.003906 6.078125 -15.609375 C 6.691406 -16.222656 7.429688 -16.53125 8.296875 -16.53125 L 19.21875 -16.53125 C 20.082031 -16.53125 20.816406 -16.222656 21.421875 -15.609375 C 22.035156 -15.003906 22.34375 -14.273438 22.34375 -13.421875 L 25.46875 -13.421875 C 25.46875 -15.128906 24.859375 -16.59375 23.640625 -17.8125 C 22.421875 -19.039062 20.945312 -19.65625 19.21875 -19.65625 L 8.296875 -19.65625 C 6.578125 -19.65625 5.109375 -19.039062 3.890625 -17.8125 C 2.671875 -16.59375 2.0625 -15.128906 2.0625 -13.421875 L 2.0625 -6.25 C 2.0625 -4.519531 2.671875 -3.046875 3.890625 -1.828125 C 5.109375 -0.609375 6.578125 0 8.296875 0 Z M 19.21875 0 "/></g></g></g><g fill="#ffffff" fill-opacity="1"><g transform="translate(187.050511, 82.724658)"><g><path d="M 25.53125 0 L 22.40625 0 L 22.40625 -8.28125 L 5.859375 -8.28125 L 5.859375 0 L 2.734375 0 L 2.734375 -19.65625 L 5.859375 -19.65625 L 5.859375 -11.390625 L 22.40625 -11.390625 L 22.40625 -19.65625 L 25.53125 -19.65625 Z M 25.53125 0 "/></g></g></g><g fill="#ffffff" fill-opacity="1"><g transform="translate(215.17866, 82.724658)"><g/></g></g><g clip-path="url(#b416c243a6)"><g transform="matrix(1, 0, 0, 1, 213, 57)"><g clip-path="url(#ba370913da)"><g clip-path="url(#4e32d315a1)"><g fill="#008cba" fill-opacity="1"><g transform="translate(0.377301, 24.822062)"><g/></g></g></g><g fill="#008cba" fill-opacity="1"><g transform="translate(7.359083, 24.822062)"><g><path d="M 28.65625 0 L 24.875 0 L 22 -4.265625 L 7.078125 -4.265625 L 4.171875 0 L 0.40625 0 L 13.703125 -19.65625 L 15.359375 -19.65625 Z M 19.875 -7.390625 L 14.53125 -15.3125 L 9.171875 -7.390625 Z M 19.875 -7.390625 "/></g></g></g><g fill="#008cba" fill-opacity="1"><g transform="translate(36.412664, 24.822062)"><g><path d="M 5.859375 0 L 5.859375 -19.65625 L 2.734375 -19.65625 L 2.734375 0 Z M 5.859375 0 "/></g></g></g></g></g></g></g></g></svg>