<svg xmlns="http://www.w3.org/2000/svg" xmlns:xlink="http://www.w3.org/1999/xlink" width="4000" zoomAndPan="magnify" viewBox="0 0 3000 2250.000011" height="3000" preserveAspectRatio="xMidYMid meet" version="1.0"><defs><g/><clipPath id="90af301d65"><path d="M 313.835938 957.027344 L 472 957.027344 L 472 1292 L 313.835938 1292 Z M 313.835938 957.027344 " clip-rule="nonzero"/></clipPath><clipPath id="357c63b759"><path d="M 481 957.027344 L 639.941406 957.027344 L 639.941406 1292 L 481 1292 Z M 481 957.027344 " clip-rule="nonzero"/></clipPath></defs><g fill="#ffffff" fill-opacity="1"><g transform="translate(692.746785, 1262.989981)"><g><path d="M 107.203125 0 L 98.515625 0 L 98.515625 -52.234375 L 60.734375 0 L 56.234375 0 L 18.453125 -52.234375 L 18.453125 0 L 9.765625 0 L 9.765625 -70.015625 L 16.3125 -70.015625 L 58.484375 -11.71875 L 100.625 -70.015625 L 107.203125 -70.015625 Z M 107.203125 0 "/></g></g></g><g fill="#ffffff" fill-opacity="1"><g transform="translate(816.508678, 1262.989981)"><g><path d="M 69.5625 0 C 75.550781 0 80.671875 -2.117188 84.921875 -6.359375 C 89.171875 -10.609375 91.296875 -15.726562 91.296875 -21.71875 L 91.296875 -70.0625 L 82.609375 -70.0625 L 82.609375 -21.71875 C 82.609375 -18.144531 81.335938 -15.078125 78.796875 -12.515625 C 76.253906 -9.960938 73.175781 -8.6875 69.5625 -8.6875 L 29.046875 -8.6875 C 25.460938 -8.6875 22.394531 -9.960938 19.84375 -12.515625 C 17.289062 -15.078125 16.015625 -18.144531 16.015625 -21.71875 L 16.015625 -70.0625 L 7.328125 -70.0625 L 7.328125 -21.71875 C 7.328125 -15.726562 9.445312 -10.609375 13.6875 -6.359375 C 17.9375 -2.117188 23.054688 0 29.046875 0 Z M 69.5625 0 "/></g></g></g><g fill="#ffffff" fill-opacity="1"><g transform="translate(921.915768, 1262.989981)"><g><path d="M 75.078125 0 L 75.078125 -8.6875 L 18.453125 -8.6875 L 18.453125 -70.0625 L 9.765625 -70.0625 L 9.765625 0 Z M 75.078125 0 "/></g></g></g><g fill="#ffffff" fill-opacity="1"><g transform="translate(992.564725, 1262.989981)"><g><path d="M 44.625 0 L 35.9375 0 L 35.9375 -61.3125 L 1.46875 -61.3125 L 1.46875 -70.015625 L 79.09375 -70.015625 L 79.09375 -61.3125 L 44.625 -61.3125 Z M 44.625 0 "/></g></g></g><g fill="#ffffff" fill-opacity="1"><g transform="translate(1079.909919, 1262.989981)"><g><path d="M 18.453125 0 L 18.453125 -70.015625 L 9.765625 -70.015625 L 9.765625 0 Z M 18.453125 0 "/></g></g></g><g fill="#ffffff" fill-opacity="1"><g transform="translate(1114.924401, 1262.989981)"><g><path d="M 4.875 -32.078125 L 4.875 -37.890625 L 35.390625 -37.890625 L 35.390625 -32.078125 Z M 4.875 -32.078125 "/></g></g></g><g fill="#ffffff" fill-opacity="1"><g transform="translate(1161.996373, 1262.989981)"><g><path d="M 100.71875 0 L 90.21875 0 L 79.53125 -15.8125 L 22.609375 -15.8125 L 11.96875 0 L 1.46875 0 L 48.765625 -70.015625 L 53.359375 -70.015625 Z M 73.671875 -24.515625 L 51.0625 -57.90625 L 28.515625 -24.515625 Z M 73.671875 -24.515625 "/></g></g></g><g fill="#ffffff" fill-opacity="1"><g transform="translate(1263.644079, 1262.989981)"><g><path d="M 69.5625 0 C 75.394531 0 80.523438 -2.113281 84.953125 -6.34375 C 89.117188 -10.644531 91.234375 -15.769531 91.296875 -21.71875 L 91.296875 -29.1875 C 91.296875 -31.082031 90.628906 -32.695312 89.296875 -34.03125 C 87.960938 -35.363281 86.347656 -36.03125 84.453125 -36.03125 L 49.3125 -36.03125 L 49.3125 -27.34375 L 82.609375 -27.34375 L 82.609375 -21.71875 C 82.609375 -18.238281 81.335938 -15.164062 78.796875 -12.5 C 76.128906 -9.957031 73.050781 -8.6875 69.5625 -8.6875 L 29.046875 -8.6875 C 25.460938 -8.6875 22.394531 -9.960938 19.84375 -12.515625 C 17.289062 -15.078125 16.015625 -18.144531 16.015625 -21.71875 L 16.015625 -48.328125 C 16.015625 -51.910156 17.289062 -54.976562 19.84375 -57.53125 C 22.394531 -60.09375 25.460938 -61.375 29.046875 -61.375 L 69.5625 -61.375 C 73.175781 -61.375 76.253906 -60.09375 78.796875 -57.53125 C 81.335938 -54.976562 82.609375 -51.910156 82.609375 -48.328125 L 91.296875 -48.328125 C 91.296875 -54.316406 89.171875 -59.4375 84.921875 -63.6875 C 80.671875 -67.9375 75.550781 -70.0625 69.5625 -70.0625 L 29.046875 -70.0625 C 23.054688 -70.0625 17.9375 -67.9375 13.6875 -63.6875 C 9.445312 -59.4375 7.328125 -54.316406 7.328125 -48.328125 L 7.328125 -21.71875 C 7.328125 -15.726562 9.445312 -10.609375 13.6875 -6.359375 C 17.9375 -2.117188 23.054688 0 29.046875 0 Z M 69.5625 0 "/></g></g></g><g fill="#ffffff" fill-opacity="1"><g transform="translate(1369.051192, 1262.989981)"><g><path d="M 89.390625 0 L 9.765625 0 L 9.765625 -70.0625 L 89.390625 -70.0625 L 89.390625 -61.375 L 18.453125 -61.375 L 18.453125 -39.34375 L 81.1875 -39.34375 L 81.1875 -30.65625 L 18.453125 -30.65625 L 18.453125 -8.6875 L 89.390625 -8.6875 Z M 89.390625 0 "/></g></g></g><g fill="#ffffff" fill-opacity="1"><g transform="translate(1472.554442, 1262.989981)"><g><path d="M 93.734375 0 L 87.828125 0 L 18.453125 -56.53125 L 18.453125 0 L 9.765625 0 L 9.765625 -70.015625 L 15.671875 -70.015625 L 85.046875 -13.46875 L 85.046875 -70.015625 L 93.734375 -70.015625 Z M 93.734375 0 "/></g></g></g><g fill="#ffffff" fill-opacity="1"><g transform="translate(1582.843128, 1262.989981)"><g><path d="M 44.625 0 L 35.9375 0 L 35.9375 -61.3125 L 1.46875 -61.3125 L 1.46875 -70.015625 L 79.09375 -70.015625 L 79.09375 -61.3125 L 44.625 -61.3125 Z M 44.625 0 "/></g></g></g><g fill="#ffffff" fill-opacity="1"><g transform="translate(1670.188277, 1262.989981)"><g/></g></g><g fill="#ffffff" fill-opacity="1"><g transform="translate(1701.785653, 1262.989981)"><g><path d="M 100.71875 0 L 90.21875 0 L 79.53125 -15.8125 L 22.609375 -15.8125 L 11.96875 0 L 1.46875 0 L 48.765625 -70.015625 L 53.359375 -70.015625 Z M 73.671875 -24.515625 L 51.0625 -57.90625 L 28.515625 -24.515625 Z M 73.671875 -24.515625 "/></g></g></g><g fill="#ffffff" fill-opacity="1"><g transform="translate(1803.433313, 1262.989981)"><g><path d="M 69.5625 0 C 75.550781 0 80.671875 -2.117188 84.921875 -6.359375 C 89.171875 -10.609375 91.296875 -15.726562 91.296875 -21.71875 L 91.296875 -70.0625 L 82.609375 -70.0625 L 82.609375 -21.71875 C 82.609375 -18.144531 81.335938 -15.078125 78.796875 -12.515625 C 76.253906 -9.960938 73.175781 -8.6875 69.5625 -8.6875 L 29.046875 -8.6875 C 25.460938 -8.6875 22.394531 -9.960938 19.84375 -12.515625 C 17.289062 -15.078125 16.015625 -18.144531 16.015625 -21.71875 L 16.015625 -70.0625 L 7.328125 -70.0625 L 7.328125 -21.71875 C 7.328125 -15.726562 9.445312 -10.609375 13.6875 -6.359375 C 17.9375 -2.117188 23.054688 0 29.046875 0 Z M 69.5625 0 "/></g></g></g><g fill="#ffffff" fill-opacity="1"><g transform="translate(1908.840472, 1262.989981)"><g><path d="M 44.625 0 L 35.9375 0 L 35.9375 -61.3125 L 1.46875 -61.3125 L 1.46875 -70.015625 L 79.09375 -70.015625 L 79.09375 -61.3125 L 44.625 -61.3125 Z M 44.625 0 "/></g></g></g><g fill="#ffffff" fill-opacity="1"><g transform="translate(1993.256411, 1262.989981)"><g><path d="M 69.5625 0 C 75.550781 0 80.671875 -2.117188 84.921875 -6.359375 C 89.171875 -10.609375 91.296875 -15.726562 91.296875 -21.71875 L 91.296875 -48.328125 C 91.296875 -54.316406 89.171875 -59.4375 84.921875 -63.6875 C 80.671875 -67.9375 75.550781 -70.0625 69.5625 -70.0625 L 29.046875 -70.0625 C 23.054688 -70.0625 17.9375 -67.9375 13.6875 -63.6875 C 9.445312 -59.4375 7.328125 -54.316406 7.328125 -48.328125 L 7.328125 -21.71875 C 7.328125 -15.726562 9.445312 -10.609375 13.6875 -6.359375 C 17.9375 -2.117188 23.054688 0 29.046875 0 Z M 69.5625 -8.6875 L 29.046875 -8.6875 C 25.460938 -8.6875 22.394531 -9.960938 19.84375 -12.515625 C 17.289062 -15.078125 16.015625 -18.144531 16.015625 -21.71875 L 16.015625 -48.328125 C 16.015625 -51.910156 17.289062 -54.976562 19.84375 -57.53125 C 22.394531 -60.09375 25.460938 -61.375 29.046875 -61.375 L 69.5625 -61.375 C 73.175781 -61.375 76.253906 -60.09375 78.796875 -57.53125 C 81.335938 -54.976562 82.609375 -51.910156 82.609375 -48.328125 L 82.609375 -21.71875 C 82.609375 -18.144531 81.335938 -15.078125 78.796875 -12.515625 C 76.253906 -9.960938 73.175781 -8.6875 69.5625 -8.6875 Z M 69.5625 -8.6875 "/></g></g></g><g fill="#ffffff" fill-opacity="1"><g transform="translate(2098.66357, 1262.989981)"><g><path d="M 107.203125 0 L 98.515625 0 L 98.515625 -52.234375 L 60.734375 0 L 56.234375 0 L 18.453125 -52.234375 L 18.453125 0 L 9.765625 0 L 9.765625 -70.015625 L 16.3125 -70.015625 L 58.484375 -11.71875 L 100.625 -70.015625 L 107.203125 -70.015625 Z M 107.203125 0 "/></g></g></g><g fill="#ffffff" fill-opacity="1"><g transform="translate(2222.425393, 1262.989981)"><g><path d="M 100.71875 0 L 90.21875 0 L 79.53125 -15.8125 L 22.609375 -15.8125 L 11.96875 0 L 1.46875 0 L 48.765625 -70.015625 L 53.359375 -70.015625 Z M 73.671875 -24.515625 L 51.0625 -57.90625 L 28.515625 -24.515625 Z M 73.671875 -24.515625 "/></g></g></g><g fill="#ffffff" fill-opacity="1"><g transform="translate(2331.396123, 1262.989981)"><g><path d="M 44.625 0 L 35.9375 0 L 35.9375 -61.3125 L 1.46875 -61.3125 L 1.46875 -70.015625 L 79.09375 -70.015625 L 79.09375 -61.3125 L 44.625 -61.3125 Z M 44.625 0 "/></g></g></g><g fill="#ffffff" fill-opacity="1"><g transform="translate(2418.741272, 1262.989981)"><g><path d="M 18.453125 0 L 18.453125 -70.015625 L 9.765625 -70.015625 L 9.765625 0 Z M 18.453125 0 "/></g></g></g><g fill="#ffffff" fill-opacity="1"><g transform="translate(2453.755799, 1262.989981)"><g><path d="M 69.5625 0 C 75.550781 0 80.671875 -2.117188 84.921875 -6.359375 C 89.171875 -10.609375 91.296875 -15.726562 91.296875 -21.71875 L 91.296875 -48.328125 C 91.296875 -54.316406 89.171875 -59.4375 84.921875 -63.6875 C 80.671875 -67.9375 75.550781 -70.0625 69.5625 -70.0625 L 29.046875 -70.0625 C 23.054688 -70.0625 17.9375 -67.9375 13.6875 -63.6875 C 9.445312 -59.4375 7.328125 -54.316406 7.328125 -48.328125 L 7.328125 -21.71875 C 7.328125 -15.726562 9.445312 -10.609375 13.6875 -6.359375 C 17.9375 -2.117188 23.054688 0 29.046875 0 Z M 69.5625 -8.6875 L 29.046875 -8.6875 C 25.460938 -8.6875 22.394531 -9.960938 19.84375 -12.515625 C 17.289062 -15.078125 16.015625 -18.144531 16.015625 -21.71875 L 16.015625 -48.328125 C 16.015625 -51.910156 17.289062 -54.976562 19.84375 -57.53125 C 22.394531 -60.09375 25.460938 -61.375 29.046875 -61.375 L 69.5625 -61.375 C 73.175781 -61.375 76.253906 -60.09375 78.796875 -57.53125 C 81.335938 -54.976562 82.609375 -51.910156 82.609375 -48.328125 L 82.609375 -21.71875 C 82.609375 -18.144531 81.335938 -15.078125 78.796875 -12.515625 C 76.253906 -9.960938 73.175781 -8.6875 69.5625 -8.6875 Z M 69.5625 -8.6875 "/></g></g></g><g fill="#ffffff" fill-opacity="1"><g transform="translate(2559.162866, 1262.989981)"><g><path d="M 93.734375 0 L 87.828125 0 L 18.453125 -56.53125 L 18.453125 0 L 9.765625 0 L 9.765625 -70.015625 L 15.671875 -70.015625 L 85.046875 -13.46875 L 85.046875 -70.015625 L 93.734375 -70.015625 Z M 93.734375 0 "/></g></g></g><g fill="#ffffff" fill-opacity="1"><g transform="translate(682.46477, 1154.988281)"><g><path d="M 45.328125 0 L 21.1875 0 L 21.1875 -151.875 L 190.109375 -151.875 L 190.109375 -127.828125 L 45.328125 -127.828125 L 45.328125 -88.015625 L 172.953125 -88.015625 L 172.953125 -63.859375 L 45.328125 -63.859375 Z M 45.328125 0 "/></g></g></g><g fill="#ffffff" fill-opacity="1"><g transform="translate(887.372737, 1154.988281)"><g><path d="M 160.25 0 L 160.25 -24.140625 L 45.328125 -24.140625 L 45.328125 -151.875 L 21.1875 -151.875 L 21.1875 0 Z M 160.25 0 "/></g></g></g><g fill="#ffffff" fill-opacity="1"><g transform="translate(1053.941748, 1154.988281)"><g><path d="M 148.59375 0 C 161.9375 0 173.320312 -4.710938 182.75 -14.140625 C 192.175781 -23.566406 196.890625 -34.953125 196.890625 -48.296875 L 196.890625 -103.6875 C 196.890625 -116.957031 192.175781 -128.304688 182.75 -137.734375 C 173.320312 -147.160156 161.9375 -151.875 148.59375 -151.875 L 64.1875 -151.875 C 50.84375 -151.875 39.457031 -147.160156 30.03125 -137.734375 C 20.601562 -128.304688 15.890625 -116.957031 15.890625 -103.6875 L 15.890625 -48.296875 C 15.890625 -34.953125 20.601562 -23.566406 30.03125 -14.140625 C 39.457031 -4.710938 50.84375 0 64.1875 0 Z M 148.59375 -24.140625 L 64.1875 -24.140625 C 57.476562 -24.140625 51.773438 -26.488281 47.078125 -31.1875 C 42.378906 -35.882812 40.03125 -41.585938 40.03125 -48.296875 L 40.03125 -103.6875 C 40.03125 -110.320312 42.378906 -116.003906 47.078125 -120.734375 C 51.773438 -125.460938 57.476562 -127.828125 64.1875 -127.828125 L 148.59375 -127.828125 C 155.226562 -127.828125 160.910156 -125.460938 165.640625 -120.734375 C 170.367188 -116.003906 172.734375 -110.320312 172.734375 -103.6875 L 172.734375 -48.296875 C 172.734375 -41.585938 170.367188 -35.882812 165.640625 -31.1875 C 160.910156 -26.488281 155.226562 -24.140625 148.59375 -24.140625 Z M 148.59375 -24.140625 "/></g></g></g><g fill="#ffffff" fill-opacity="1"><g transform="translate(1249.741563, 1154.988281)"><g><path d="M 217.546875 0 L 202.390625 0 L 145.84375 -112.90625 L 89.28125 0 L 74.25 0 L 3.171875 -151.875 L 29.765625 -151.875 L 82.1875 -39.71875 L 138.421875 -151.875 L 153.359375 -151.875 L 209.5 -39.71875 L 262.03125 -151.875 L 288.71875 -151.875 Z M 217.546875 0 "/></g></g></g><g fill="#ffffff" fill-opacity="1"><g transform="translate(1540.541493, 1154.988281)"><g><path d="M 96.0625 0 L 71.90625 0 L 71.90625 -127.828125 L 3.171875 -127.828125 L 3.171875 -151.875 L 164.90625 -151.875 L 164.90625 -127.828125 L 96.0625 -127.828125 Z M 96.0625 0 "/></g></g></g><g fill="#ffffff" fill-opacity="1"><g transform="translate(1707.534163, 1154.988281)"><g><path d="M 190.109375 0 L 21.1875 0 L 21.1875 -151.875 L 190.109375 -151.875 L 190.109375 -127.828125 L 45.328125 -127.828125 L 45.328125 -88.015625 L 172.953125 -88.015625 L 172.953125 -63.859375 L 45.328125 -63.859375 L 45.328125 -24.140625 L 190.109375 -24.140625 Z M 190.109375 0 "/></g></g></g><g fill="#ffffff" fill-opacity="1"><g transform="translate(1912.442108, 1154.988281)"><g><path d="M 148.59375 0 C 161.9375 0 173.320312 -4.710938 182.75 -14.140625 C 192.175781 -23.566406 196.890625 -34.953125 196.890625 -48.296875 L 172.734375 -48.296875 C 172.734375 -41.585938 170.367188 -35.882812 165.640625 -31.1875 C 160.910156 -26.488281 155.226562 -24.140625 148.59375 -24.140625 L 64.1875 -24.140625 C 57.476562 -24.140625 51.773438 -26.488281 47.078125 -31.1875 C 42.378906 -35.882812 40.03125 -41.585938 40.03125 -48.296875 L 40.03125 -103.6875 C 40.03125 -110.320312 42.378906 -116.003906 47.078125 -120.734375 C 51.773438 -125.460938 57.476562 -127.828125 64.1875 -127.828125 L 148.59375 -127.828125 C 155.226562 -127.828125 160.910156 -125.460938 165.640625 -120.734375 C 170.367188 -116.003906 172.734375 -110.320312 172.734375 -103.6875 L 196.890625 -103.6875 C 196.890625 -116.957031 192.175781 -128.304688 182.75 -137.734375 C 173.320312 -147.160156 161.9375 -151.875 148.59375 -151.875 L 64.1875 -151.875 C 50.84375 -151.875 39.457031 -147.160156 30.03125 -137.734375 C 20.601562 -128.304688 15.890625 -116.957031 15.890625 -103.6875 L 15.890625 -48.296875 C 15.890625 -34.953125 20.601562 -23.566406 30.03125 -14.140625 C 39.457031 -4.710938 50.84375 0 64.1875 0 Z M 148.59375 0 "/></g></g></g><g fill="#ffffff" fill-opacity="1"><g transform="translate(2124.128262, 1154.988281)"><g><path d="M 197.3125 0 L 173.171875 0 L 173.171875 -63.96875 L 45.328125 -63.96875 L 45.328125 0 L 21.1875 0 L 21.1875 -151.875 L 45.328125 -151.875 L 45.328125 -88.015625 L 173.171875 -88.015625 L 173.171875 -151.875 L 197.3125 -151.875 Z M 197.3125 0 "/></g></g></g><g fill="#ffffff" fill-opacity="1"><g transform="translate(2341.535919, 1154.988281)"><g/></g></g><g fill="#ffffff" fill-opacity="1"><g transform="translate(2333.452769, 1154.988281)"><g/></g></g><g fill="#ffffff" fill-opacity="1"><g transform="translate(2387.264788, 1154.988281)"><g><path d="M 221.453125 0 L 192.234375 0 L 169.984375 -32.9375 L 54.65625 -32.9375 L 32.296875 0 L 3.171875 0 L 105.90625 -151.875 L 118.71875 -151.875 Z M 153.671875 -57.09375 L 112.265625 -118.296875 L 70.859375 -57.09375 Z M 153.671875 -57.09375 "/></g></g><g transform="translate(2611.897209, 1154.988281)"><g><path d="M 45.328125 0 L 45.328125 -151.875 L 21.1875 -151.875 L 21.1875 0 Z M 45.328125 0 "/></g></g></g><path fill="#008cba" d="M 441.304688 1139.597656 L 476.679688 1160.015625 L 512.101562 1139.597656 L 512.101562 1102.011719 L 476.679688 1081.554688 L 441.304688 1102.011719 Z M 441.304688 1139.597656 " fill-opacity="1" fill-rule="evenodd"/><g clip-path="url(#90af301d65)"><path fill="#008cba" d="M 471.679688 1168.726562 L 431.261719 1145.390625 L 431.261719 1096.222656 L 471.679688 1072.84375 L 471.679688 977.589844 L 436.054688 957.046875 L 398.96875 978.464844 L 398.96875 1020.339844 C 403.550781 1022.214844 406.757812 1026.714844 406.757812 1031.96875 C 406.757812 1038.882812 401.132812 1044.507812 394.214844 1044.507812 C 387.300781 1044.507812 381.675781 1038.882812 381.675781 1031.96875 C 381.675781 1026.925781 384.632812 1022.589844 388.925781 1020.589844 L 388.925781 984.253906 L 356.171875 1003.171875 L 356.171875 1048.71875 L 394.007812 1070.59375 L 431.261719 1049.09375 L 431.261719 1009.632812 C 427.050781 1007.632812 424.136719 1003.339844 424.136719 998.339844 C 424.136719 991.421875 429.761719 985.796875 436.679688 985.796875 C 443.59375 985.796875 449.21875 991.421875 449.21875 998.339844 C 449.21875 1003.632812 445.929688 1008.175781 441.304688 1010.007812 L 441.304688 1054.886719 L 398.96875 1079.304688 L 398.96875 1123.640625 C 403.382812 1125.597656 406.46875 1130.015625 406.46875 1135.140625 C 406.46875 1142.058594 400.882812 1147.683594 393.925781 1147.683594 C 387.007812 1147.683594 381.425781 1142.058594 381.425781 1135.140625 C 381.425781 1130.015625 384.507812 1125.597656 388.925781 1123.640625 L 388.925781 1079.261719 L 351.878906 1057.886719 L 313.835938 1079.84375 L 313.835938 1116.765625 L 350.503906 1095.597656 L 350.464844 1094.761719 C 350.464844 1087.847656 356.089844 1082.21875 363.007812 1082.21875 C 369.921875 1082.21875 375.546875 1087.847656 375.546875 1094.761719 C 375.546875 1101.679688 369.921875 1107.304688 363.007812 1107.304688 C 360.007812 1107.304688 357.257812 1106.265625 355.128906 1104.515625 L 313.835938 1128.347656 L 313.835938 1170.019531 L 351.878906 1191.976562 L 383.382812 1173.808594 L 354.421875 1157.101562 C 352.171875 1159.183594 349.171875 1160.433594 345.878906 1160.433594 C 338.964844 1160.433594 333.335938 1154.808594 333.335938 1147.890625 C 333.335938 1140.972656 338.964844 1135.347656 345.878906 1135.347656 C 352.796875 1135.347656 358.382812 1140.933594 358.421875 1147.808594 L 441.304688 1195.644531 L 441.304688 1247.898438 C 445.886719 1249.773438 449.136719 1254.273438 449.136719 1259.523438 C 449.136719 1266.441406 443.511719 1272.066406 436.59375 1272.066406 C 429.675781 1272.066406 424.050781 1266.441406 424.050781 1259.523438 C 424.050781 1254.523438 427.011719 1250.191406 431.261719 1248.191406 L 431.261719 1201.4375 L 393.425781 1179.601562 L 356.171875 1201.144531 L 356.171875 1245.273438 L 388.925781 1264.191406 L 388.925781 1222.3125 C 384.507812 1220.394531 381.425781 1215.980469 381.425781 1210.855469 C 381.425781 1203.9375 387.050781 1198.3125 393.964844 1198.3125 C 400.882812 1198.3125 406.507812 1203.9375 406.507812 1210.855469 C 406.507812 1215.980469 403.382812 1220.4375 398.96875 1222.355469 L 398.96875 1269.984375 L 436.96875 1291.941406 L 471.679688 1271.898438 Z M 471.679688 1168.726562 " fill-opacity="1" fill-rule="evenodd"/></g><g clip-path="url(#357c63b759)"><path fill="#1e3a8a" d="M 481.722656 1168.726562 L 481.722656 1271.898438 L 516.390625 1291.941406 L 554.4375 1269.984375 L 554.4375 1222.355469 C 549.976562 1220.4375 546.894531 1215.980469 546.894531 1210.855469 C 546.894531 1203.9375 552.476562 1198.3125 559.394531 1198.3125 C 566.351562 1198.3125 571.9375 1203.9375 571.9375 1210.855469 C 571.9375 1215.980469 568.851562 1220.394531 564.476562 1222.3125 L 564.476562 1264.191406 L 597.230469 1245.273438 L 597.230469 1201.144531 L 559.976562 1179.601562 L 522.140625 1201.4375 L 522.140625 1248.191406 C 526.390625 1250.191406 529.308594 1254.523438 529.308594 1259.523438 C 529.308594 1266.441406 523.726562 1272.066406 516.765625 1272.066406 C 509.847656 1272.066406 504.265625 1266.441406 504.265625 1259.523438 C 504.265625 1254.273438 507.515625 1249.773438 512.101562 1247.898438 L 512.101562 1195.644531 L 594.980469 1147.808594 C 595.023438 1140.933594 600.605469 1135.347656 607.480469 1135.347656 C 614.441406 1135.347656 620.023438 1140.972656 620.023438 1147.890625 C 620.023438 1154.808594 614.441406 1160.433594 607.480469 1160.433594 C 604.1875 1160.433594 601.230469 1159.183594 598.980469 1157.101562 L 570.019531 1173.808594 L 601.480469 1191.976562 L 639.566406 1170.019531 L 639.566406 1128.347656 L 598.273438 1104.515625 C 596.105469 1106.265625 593.355469 1107.304688 590.398438 1107.304688 C 583.480469 1107.304688 577.855469 1101.679688 577.855469 1094.761719 C 577.855469 1087.847656 583.480469 1082.21875 590.398438 1082.21875 C 597.3125 1082.21875 602.9375 1087.847656 602.9375 1094.761719 L 602.898438 1095.597656 L 639.566406 1116.765625 L 639.566406 1079.84375 L 601.480469 1057.886719 L 564.476562 1079.261719 L 564.476562 1123.640625 C 568.894531 1125.597656 571.980469 1130.015625 571.980469 1135.140625 C 571.980469 1142.058594 566.351562 1147.683594 559.4375 1147.683594 C 552.519531 1147.683594 546.894531 1142.058594 546.894531 1135.140625 C 546.894531 1130.015625 549.976562 1125.597656 554.4375 1123.640625 L 554.4375 1079.304688 L 512.101562 1054.886719 L 512.101562 1010.007812 C 507.472656 1008.175781 504.183594 1003.632812 504.183594 998.339844 C 504.183594 991.421875 509.808594 985.796875 516.726562 985.796875 C 523.640625 985.796875 529.265625 991.421875 529.265625 998.339844 C 529.265625 1003.339844 526.351562 1007.632812 522.140625 1009.632812 L 522.140625 1049.09375 L 559.394531 1070.59375 L 597.230469 1048.71875 L 597.230469 1003.171875 L 564.476562 984.253906 L 564.476562 1020.589844 C 568.726562 1022.589844 571.6875 1026.925781 571.6875 1031.96875 C 571.6875 1038.882812 566.0625 1044.507812 559.144531 1044.507812 C 552.226562 1044.507812 546.601562 1038.882812 546.601562 1031.96875 C 546.601562 1026.714844 549.851562 1022.214844 554.4375 1020.339844 L 554.4375 978.464844 L 517.308594 957.046875 L 481.722656 977.589844 L 481.722656 1072.84375 L 522.140625 1096.222656 L 522.140625 1145.390625 Z M 481.722656 1168.726562 " fill-opacity="1" fill-rule="evenodd"/></g></svg>