<svg xmlns="http://www.w3.org/2000/svg" xmlns:xlink="http://www.w3.org/1999/xlink" width="4000" zoomAndPan="magnify" viewBox="0 0 3000 2250.000011" height="3000" preserveAspectRatio="xMidYMid meet" version="1.0"><defs><g/><clipPath id="157cd25fb9"><path d="M 1271.144531 614.644531 L 1493 614.644531 L 1493 1085.4375 L 1271.144531 1085.4375 Z M 1271.144531 614.644531 " clip-rule="nonzero"/></clipPath><clipPath id="56d9358410"><path d="M 1507 614.644531 L 1729 614.644531 L 1729 1085.4375 L 1507 1085.4375 Z M 1507 614.644531 " clip-rule="nonzero"/></clipPath><clipPath id="aa95744f9f"><path d="M 0.226562 243 L 1 243 L 1 244 L 0.226562 244 Z M 0.226562 243 " clip-rule="nonzero"/></clipPath><clipPath id="8d8bda16ea"><rect x="0" width="454" y="0" height="309"/></clipPath></defs><g fill="#008cba" fill-opacity="1"><g transform="translate(234.623414, 1597.123952)"><g><path d="M 139.359375 0 L 128.0625 0 L 128.0625 -67.90625 L 78.953125 0 L 73.109375 0 L 23.984375 -67.90625 L 23.984375 0 L 12.6875 0 L 12.6875 -91 L 21.203125 -91 L 76.03125 -15.234375 L 130.796875 -91 L 139.359375 -91 Z M 139.359375 0 "/></g></g></g><g fill="#008cba" fill-opacity="1"><g transform="translate(394.07637, 1597.123952)"><g><path d="M 90.4375 0 C 98.21875 0 104.867188 -2.757812 110.390625 -8.28125 C 115.910156 -13.800781 118.671875 -20.453125 118.671875 -28.234375 L 118.671875 -91.0625 L 107.375 -91.0625 L 107.375 -28.234375 C 107.375 -23.585938 105.722656 -19.601562 102.421875 -16.28125 C 99.128906 -12.957031 95.132812 -11.296875 90.4375 -11.296875 L 37.765625 -11.296875 C 33.109375 -11.296875 29.117188 -12.957031 25.796875 -16.28125 C 22.472656 -19.601562 20.8125 -23.585938 20.8125 -28.234375 L 20.8125 -91.0625 L 9.515625 -91.0625 L 9.515625 -28.234375 C 9.515625 -20.453125 12.273438 -13.800781 17.796875 -8.28125 C 23.316406 -2.757812 29.972656 0 37.765625 0 Z M 90.4375 0 "/></g></g></g><g fill="#008cba" fill-opacity="1"><g transform="translate(529.669156, 1597.123952)"><g><path d="M 97.609375 0 L 97.609375 -11.296875 L 23.984375 -11.296875 L 23.984375 -91.0625 L 12.6875 -91.0625 L 12.6875 0 Z M 97.609375 0 "/></g></g></g><g fill="#008cba" fill-opacity="1"><g transform="translate(620.079845, 1597.123952)"><g><path d="M 58 0 L 46.703125 0 L 46.703125 -79.703125 L 1.90625 -79.703125 L 1.90625 -91 L 102.8125 -91 L 102.8125 -79.703125 L 58 -79.703125 Z M 58 0 "/></g></g></g><g fill="#008cba" fill-opacity="1"><g transform="translate(732.193236, 1597.123952)"><g><path d="M 23.984375 0 L 23.984375 -91 L 12.6875 -91 L 12.6875 0 Z M 23.984375 0 "/></g></g></g><g fill="#008cba" fill-opacity="1"><g transform="translate(776.279719, 1597.123952)"><g><path d="M 6.34375 -41.6875 L 6.34375 -49.25 L 46.015625 -49.25 L 46.015625 -41.6875 Z M 6.34375 -41.6875 "/></g></g></g><g fill="#008cba" fill-opacity="1"><g transform="translate(836.040342, 1597.123952)"><g><path d="M 130.921875 0 L 117.28125 0 L 103.375 -20.5625 L 29.375 -20.5625 L 15.546875 0 L 1.90625 0 L 63.390625 -91 L 69.359375 -91 Z M 95.765625 -31.859375 L 66.375 -75.265625 L 37.0625 -31.859375 Z M 95.765625 -31.859375 "/></g></g></g><g fill="#008cba" fill-opacity="1"><g transform="translate(966.746831, 1597.123952)"><g><path d="M 90.4375 0 C 98.007812 0 104.671875 -2.75 110.421875 -8.25 C 115.835938 -13.832031 118.585938 -20.492188 118.671875 -28.234375 L 118.671875 -37.953125 C 118.671875 -40.398438 117.800781 -42.488281 116.0625 -44.21875 C 114.332031 -45.957031 112.238281 -46.828125 109.78125 -46.828125 L 64.09375 -46.828125 L 64.09375 -35.53125 L 107.375 -35.53125 L 107.375 -28.234375 C 107.375 -23.710938 105.722656 -19.71875 102.421875 -16.25 C 98.953125 -12.945312 94.957031 -11.296875 90.4375 -11.296875 L 37.765625 -11.296875 C 33.109375 -11.296875 29.117188 -12.957031 25.796875 -16.28125 C 22.472656 -19.601562 20.8125 -23.585938 20.8125 -28.234375 L 20.8125 -62.828125 C 20.8125 -67.484375 22.472656 -71.46875 25.796875 -74.78125 C 29.117188 -78.101562 33.109375 -79.765625 37.765625 -79.765625 L 90.4375 -79.765625 C 95.132812 -79.765625 99.128906 -78.101562 102.421875 -74.78125 C 105.722656 -71.46875 107.375 -67.484375 107.375 -62.828125 L 118.671875 -62.828125 C 118.671875 -70.609375 115.910156 -77.257812 110.390625 -82.78125 C 104.867188 -88.300781 98.21875 -91.0625 90.4375 -91.0625 L 37.765625 -91.0625 C 29.972656 -91.0625 23.316406 -88.300781 17.796875 -82.78125 C 12.273438 -77.257812 9.515625 -70.609375 9.515625 -62.828125 L 9.515625 -28.234375 C 9.515625 -20.453125 12.273438 -13.800781 17.796875 -8.28125 C 23.316406 -2.757812 29.972656 0 37.765625 0 Z M 90.4375 0 "/></g></g></g><g fill="#008cba" fill-opacity="1"><g transform="translate(1102.339655, 1597.123952)"><g><path d="M 116.203125 0 L 12.6875 0 L 12.6875 -91.0625 L 116.203125 -91.0625 L 116.203125 -79.765625 L 23.984375 -79.765625 L 23.984375 -51.15625 L 105.53125 -51.15625 L 105.53125 -39.859375 L 23.984375 -39.859375 L 23.984375 -11.296875 L 116.203125 -11.296875 Z M 116.203125 0 "/></g></g></g><g fill="#008cba" fill-opacity="1"><g transform="translate(1235.457581, 1597.123952)"><g><path d="M 121.84375 0 L 114.171875 0 L 23.984375 -73.484375 L 23.984375 0 L 12.6875 0 L 12.6875 -91 L 20.375 -91 L 110.546875 -17.515625 L 110.546875 -91 L 121.84375 -91 Z M 121.84375 0 "/></g></g></g><g fill="#008cba" fill-opacity="1"><g transform="translate(1377.39617, 1597.123952)"><g><path d="M 58 0 L 46.703125 0 L 46.703125 -79.703125 L 1.90625 -79.703125 L 1.90625 -91 L 102.8125 -91 L 102.8125 -79.703125 L 58 -79.703125 Z M 58 0 "/></g></g></g><g fill="#008cba" fill-opacity="1"><g transform="translate(1489.509515, 1597.123952)"><g/></g></g><g fill="#008cba" fill-opacity="1"><g transform="translate(1529.154003, 1597.123952)"><g><path d="M 130.921875 0 L 117.28125 0 L 103.375 -20.5625 L 29.375 -20.5625 L 15.546875 0 L 1.90625 0 L 63.390625 -91 L 69.359375 -91 Z M 95.765625 -31.859375 L 66.375 -75.265625 L 37.0625 -31.859375 Z M 95.765625 -31.859375 "/></g></g></g><g fill="#008cba" fill-opacity="1"><g transform="translate(1659.860492, 1597.123952)"><g><path d="M 90.4375 0 C 98.21875 0 104.867188 -2.757812 110.390625 -8.28125 C 115.910156 -13.800781 118.671875 -20.453125 118.671875 -28.234375 L 118.671875 -91.0625 L 107.375 -91.0625 L 107.375 -28.234375 C 107.375 -23.585938 105.722656 -19.601562 102.421875 -16.28125 C 99.128906 -12.957031 95.132812 -11.296875 90.4375 -11.296875 L 37.765625 -11.296875 C 33.109375 -11.296875 29.117188 -12.957031 25.796875 -16.28125 C 22.472656 -19.601562 20.8125 -23.585938 20.8125 -28.234375 L 20.8125 -91.0625 L 9.515625 -91.0625 L 9.515625 -28.234375 C 9.515625 -20.453125 12.273438 -13.800781 17.796875 -8.28125 C 23.316406 -2.757812 29.972656 0 37.765625 0 Z M 90.4375 0 "/></g></g></g><g fill="#008cba" fill-opacity="1"><g transform="translate(1795.453271, 1597.123952)"><g><path d="M 58 0 L 46.703125 0 L 46.703125 -79.703125 L 1.90625 -79.703125 L 1.90625 -91 L 102.8125 -91 L 102.8125 -79.703125 L 58 -79.703125 Z M 58 0 "/></g></g></g><g fill="#008cba" fill-opacity="1"><g transform="translate(1903.759074, 1597.123952)"><g><path d="M 90.4375 0 C 98.21875 0 104.867188 -2.757812 110.390625 -8.28125 C 115.910156 -13.800781 118.671875 -20.453125 118.671875 -28.234375 L 118.671875 -62.828125 C 118.671875 -70.609375 115.910156 -77.257812 110.390625 -82.78125 C 104.867188 -88.300781 98.21875 -91.0625 90.4375 -91.0625 L 37.765625 -91.0625 C 29.972656 -91.0625 23.316406 -88.300781 17.796875 -82.78125 C 12.273438 -77.257812 9.515625 -70.609375 9.515625 -62.828125 L 9.515625 -28.234375 C 9.515625 -20.453125 12.273438 -13.800781 17.796875 -8.28125 C 23.316406 -2.757812 29.972656 0 37.765625 0 Z M 90.4375 -11.296875 L 37.765625 -11.296875 C 33.109375 -11.296875 29.117188 -12.957031 25.796875 -16.28125 C 22.472656 -19.601562 20.8125 -23.585938 20.8125 -28.234375 L 20.8125 -62.828125 C 20.8125 -67.484375 22.472656 -71.46875 25.796875 -74.78125 C 29.117188 -78.101562 33.109375 -79.765625 37.765625 -79.765625 L 90.4375 -79.765625 C 95.132812 -79.765625 99.128906 -78.101562 102.421875 -74.78125 C 105.722656 -71.46875 107.375 -67.484375 107.375 -62.828125 L 107.375 -28.234375 C 107.375 -23.585938 105.722656 -19.601562 102.421875 -16.28125 C 99.128906 -12.957031 95.132812 -11.296875 90.4375 -11.296875 Z M 90.4375 -11.296875 "/></g></g></g><g fill="#008cba" fill-opacity="1"><g transform="translate(2039.351943, 1597.123952)"><g><path d="M 139.359375 0 L 128.0625 0 L 128.0625 -67.90625 L 78.953125 0 L 73.109375 0 L 23.984375 -67.90625 L 23.984375 0 L 12.6875 0 L 12.6875 -91 L 21.203125 -91 L 76.03125 -15.234375 L 130.796875 -91 L 139.359375 -91 Z M 139.359375 0 "/></g></g></g><g fill="#008cba" fill-opacity="1"><g transform="translate(2198.804937, 1597.123952)"><g><path d="M 130.921875 0 L 117.28125 0 L 103.375 -20.5625 L 29.375 -20.5625 L 15.546875 0 L 1.90625 0 L 63.390625 -91 L 69.359375 -91 Z M 95.765625 -31.859375 L 66.375 -75.265625 L 37.0625 -31.859375 Z M 95.765625 -31.859375 "/></g></g></g><g fill="#008cba" fill-opacity="1"><g transform="translate(2339.030147, 1597.123952)"><g><path d="M 58 0 L 46.703125 0 L 46.703125 -79.703125 L 1.90625 -79.703125 L 1.90625 -91 L 102.8125 -91 L 102.8125 -79.703125 L 58 -79.703125 Z M 58 0 "/></g></g></g><g fill="#008cba" fill-opacity="1"><g transform="translate(2451.1434, 1597.123952)"><g><path d="M 23.984375 0 L 23.984375 -91 L 12.6875 -91 L 12.6875 0 Z M 23.984375 0 "/></g></g></g><g fill="#008cba" fill-opacity="1"><g transform="translate(2495.230067, 1597.123952)"><g><path d="M 90.4375 0 C 98.21875 0 104.867188 -2.757812 110.390625 -8.28125 C 115.910156 -13.800781 118.671875 -20.453125 118.671875 -28.234375 L 118.671875 -62.828125 C 118.671875 -70.609375 115.910156 -77.257812 110.390625 -82.78125 C 104.867188 -88.300781 98.21875 -91.0625 90.4375 -91.0625 L 37.765625 -91.0625 C 29.972656 -91.0625 23.316406 -88.300781 17.796875 -82.78125 C 12.273438 -77.257812 9.515625 -70.609375 9.515625 -62.828125 L 9.515625 -28.234375 C 9.515625 -20.453125 12.273438 -13.800781 17.796875 -8.28125 C 23.316406 -2.757812 29.972656 0 37.765625 0 Z M 90.4375 -11.296875 L 37.765625 -11.296875 C 33.109375 -11.296875 29.117188 -12.957031 25.796875 -16.28125 C 22.472656 -19.601562 20.8125 -23.585938 20.8125 -28.234375 L 20.8125 -62.828125 C 20.8125 -67.484375 22.472656 -71.46875 25.796875 -74.78125 C 29.117188 -78.101562 33.109375 -79.765625 37.765625 -79.765625 L 90.4375 -79.765625 C 95.132812 -79.765625 99.128906 -78.101562 102.421875 -74.78125 C 105.722656 -71.46875 107.375 -67.484375 107.375 -62.828125 L 107.375 -28.234375 C 107.375 -23.585938 105.722656 -19.601562 102.421875 -16.28125 C 99.128906 -12.957031 95.132812 -11.296875 90.4375 -11.296875 Z M 90.4375 -11.296875 "/></g></g></g><g fill="#008cba" fill-opacity="1"><g transform="translate(2630.822756, 1597.123952)"><g><path d="M 121.84375 0 L 114.171875 0 L 23.984375 -73.484375 L 23.984375 0 L 12.6875 0 L 12.6875 -91 L 20.375 -91 L 110.546875 -17.515625 L 110.546875 -91 L 121.84375 -91 Z M 121.84375 0 "/></g></g></g><path fill="#008cba" d="M 1450.257812 871.195312 L 1499.96875 899.886719 L 1549.738281 871.195312 L 1549.738281 818.382812 L 1499.96875 789.632812 L 1450.257812 818.382812 Z M 1450.257812 871.195312 " fill-opacity="1" fill-rule="evenodd"/><g clip-path="url(#157cd25fb9)"><path fill="#008cba" d="M 1492.941406 912.125 L 1436.144531 879.335938 L 1436.144531 810.242188 L 1492.941406 777.394531 L 1492.941406 643.542969 L 1442.878906 614.675781 L 1390.769531 644.773438 L 1390.769531 703.617188 C 1397.207031 706.253906 1401.71875 712.578125 1401.71875 719.953125 C 1401.71875 729.671875 1393.8125 737.578125 1384.09375 737.578125 C 1374.375 737.578125 1366.46875 729.671875 1366.46875 719.953125 C 1366.46875 712.867188 1370.625 706.78125 1376.65625 703.96875 L 1376.65625 652.910156 L 1330.632812 679.492188 L 1330.632812 743.492188 L 1383.800781 774.230469 L 1436.144531 744.019531 L 1436.144531 688.570312 C 1430.234375 685.757812 1426.132812 679.726562 1426.132812 672.703125 C 1426.132812 662.980469 1434.039062 655.078125 1443.757812 655.078125 C 1453.476562 655.078125 1461.382812 662.980469 1461.382812 672.703125 C 1461.382812 680.136719 1456.757812 686.519531 1450.257812 689.097656 L 1450.257812 752.15625 L 1390.769531 786.46875 L 1390.769531 848.769531 C 1396.976562 851.523438 1401.308594 857.726562 1401.308594 864.929688 C 1401.308594 874.648438 1393.460938 882.554688 1383.683594 882.554688 C 1373.964844 882.554688 1366.117188 874.648438 1366.117188 864.929688 C 1366.117188 857.726562 1370.449219 851.523438 1376.65625 848.769531 L 1376.65625 786.410156 L 1324.601562 756.375 L 1271.144531 787.230469 L 1271.144531 839.109375 L 1322.671875 809.363281 L 1322.613281 808.191406 C 1322.613281 798.472656 1330.515625 790.570312 1340.238281 790.570312 C 1349.957031 790.570312 1357.863281 798.472656 1357.863281 808.191406 C 1357.863281 817.914062 1349.957031 825.816406 1340.238281 825.816406 C 1336.019531 825.816406 1332.15625 824.351562 1329.171875 821.894531 L 1271.144531 855.386719 L 1271.144531 913.9375 L 1324.601562 944.796875 L 1368.871094 919.265625 L 1328.175781 895.789062 C 1325.011719 898.714844 1320.796875 900.472656 1316.171875 900.472656 C 1306.453125 900.472656 1298.546875 892.566406 1298.546875 882.847656 C 1298.546875 873.128906 1306.453125 865.222656 1316.171875 865.222656 C 1325.890625 865.222656 1333.738281 873.070312 1333.796875 882.730469 L 1450.257812 949.949219 L 1450.257812 1023.375 C 1456.699219 1026.007812 1461.265625 1032.332031 1461.265625 1039.710938 C 1461.265625 1049.429688 1453.359375 1057.335938 1443.640625 1057.335938 C 1433.921875 1057.335938 1426.015625 1049.429688 1426.015625 1039.710938 C 1426.015625 1032.683594 1430.175781 1026.59375 1436.144531 1023.785156 L 1436.144531 958.085938 L 1382.980469 927.40625 L 1330.632812 957.679688 L 1330.632812 1019.683594 L 1376.65625 1046.269531 L 1376.65625 987.421875 C 1370.449219 984.730469 1366.117188 978.523438 1366.117188 971.320312 C 1366.117188 961.601562 1374.023438 953.695312 1383.742188 953.695312 C 1393.460938 953.695312 1401.367188 961.601562 1401.367188 971.320312 C 1401.367188 978.523438 1396.976562 984.789062 1390.769531 987.480469 L 1390.769531 1054.40625 L 1444.167969 1085.265625 L 1492.941406 1057.101562 Z M 1492.941406 912.125 " fill-opacity="1" fill-rule="evenodd"/></g><g clip-path="url(#56d9358410)"><path fill="#1e3a8a" d="M 1507.054688 912.125 L 1507.054688 1057.101562 L 1555.769531 1085.265625 L 1609.226562 1054.40625 L 1609.226562 987.480469 C 1602.964844 984.789062 1598.628906 978.523438 1598.628906 971.320312 C 1598.628906 961.601562 1606.476562 953.695312 1616.195312 953.695312 C 1625.972656 953.695312 1633.820312 961.601562 1633.820312 971.320312 C 1633.820312 978.523438 1629.488281 984.730469 1623.339844 987.421875 L 1623.339844 1046.269531 L 1669.363281 1019.683594 L 1669.363281 957.679688 L 1617.015625 927.40625 L 1563.851562 958.085938 L 1563.851562 1023.785156 C 1569.824219 1026.59375 1573.921875 1032.683594 1573.921875 1039.710938 C 1573.921875 1049.429688 1566.074219 1057.335938 1556.296875 1057.335938 C 1546.578125 1057.335938 1538.730469 1049.429688 1538.730469 1039.710938 C 1538.730469 1032.332031 1543.296875 1026.007812 1549.738281 1023.375 L 1549.738281 949.949219 L 1666.199219 882.730469 C 1666.257812 873.070312 1674.105469 865.222656 1683.765625 865.222656 C 1693.542969 865.222656 1701.390625 873.128906 1701.390625 882.847656 C 1701.390625 892.566406 1693.542969 900.472656 1683.765625 900.472656 C 1679.140625 900.472656 1674.984375 898.714844 1671.820312 895.789062 L 1631.128906 919.265625 L 1675.335938 944.796875 L 1728.851562 913.9375 L 1728.851562 855.386719 L 1670.824219 821.894531 C 1667.78125 824.351562 1663.917969 825.816406 1659.757812 825.816406 C 1650.039062 825.816406 1642.136719 817.914062 1642.136719 808.191406 C 1642.136719 798.472656 1650.039062 790.570312 1659.757812 790.570312 C 1669.480469 790.570312 1677.382812 798.472656 1677.382812 808.191406 L 1677.324219 809.363281 L 1728.851562 839.109375 L 1728.851562 787.230469 L 1675.335938 756.375 L 1623.339844 786.410156 L 1623.339844 848.769531 C 1629.546875 851.523438 1633.878906 857.726562 1633.878906 864.929688 C 1633.878906 874.648438 1625.972656 882.554688 1616.253906 882.554688 C 1606.535156 882.554688 1598.628906 874.648438 1598.628906 864.929688 C 1598.628906 857.726562 1602.964844 851.523438 1609.226562 848.769531 L 1609.226562 786.46875 L 1549.738281 752.15625 L 1549.738281 689.097656 C 1543.238281 686.519531 1538.613281 680.136719 1538.613281 672.703125 C 1538.613281 662.980469 1546.519531 655.078125 1556.238281 655.078125 C 1565.957031 655.078125 1573.863281 662.980469 1573.863281 672.703125 C 1573.863281 679.726562 1569.765625 685.757812 1563.851562 688.570312 L 1563.851562 744.019531 L 1616.195312 774.230469 L 1669.363281 743.492188 L 1669.363281 679.492188 L 1623.339844 652.910156 L 1623.339844 703.96875 C 1629.3125 706.78125 1633.46875 712.867188 1633.46875 719.953125 C 1633.46875 729.671875 1625.566406 737.578125 1615.84375 737.578125 C 1606.125 737.578125 1598.21875 729.671875 1598.21875 719.953125 C 1598.21875 712.578125 1602.789062 706.253906 1609.226562 703.617188 L 1609.226562 644.773438 L 1557.058594 614.675781 L 1507.054688 643.542969 L 1507.054688 777.394531 L 1563.851562 810.242188 L 1563.851562 879.335938 Z M 1507.054688 912.125 " fill-opacity="1" fill-rule="evenodd"/></g><g fill="#111418" fill-opacity="1"><g transform="translate(215.84571, 1431.610408)"><g><path d="M 58.625 0 L 27.390625 0 L 27.390625 -196.40625 L 245.84375 -196.40625 L 245.84375 -165.3125 L 58.625 -165.3125 L 58.625 -113.8125 L 223.65625 -113.8125 L 223.65625 -82.59375 L 58.625 -82.59375 Z M 58.625 0 "/></g></g></g><g fill="#111418" fill-opacity="1"><g transform="translate(480.838713, 1431.610408)"><g><path d="M 207.21875 0 L 207.21875 -31.234375 L 58.625 -31.234375 L 58.625 -196.40625 L 27.390625 -196.40625 L 27.390625 0 Z M 207.21875 0 "/></g></g></g><g fill="#111418" fill-opacity="1"><g transform="translate(696.250621, 1431.610408)"><g><path d="M 192.15625 0 C 209.414062 0 224.140625 -6.09375 236.328125 -18.28125 C 248.515625 -30.46875 254.609375 -45.191406 254.609375 -62.453125 L 254.609375 -134.09375 C 254.609375 -151.25 248.515625 -165.921875 236.328125 -178.109375 C 224.140625 -190.304688 209.414062 -196.40625 192.15625 -196.40625 L 83 -196.40625 C 65.738281 -196.40625 51.015625 -190.304688 38.828125 -178.109375 C 26.640625 -165.921875 20.546875 -151.25 20.546875 -134.09375 L 20.546875 -62.453125 C 20.546875 -45.191406 26.640625 -30.46875 38.828125 -18.28125 C 51.015625 -6.09375 65.738281 0 83 0 Z M 192.15625 -31.234375 L 83 -31.234375 C 74.320312 -31.234375 66.945312 -34.265625 60.875 -40.328125 C 54.800781 -46.398438 51.765625 -53.773438 51.765625 -62.453125 L 51.765625 -134.09375 C 51.765625 -142.675781 54.800781 -150.023438 60.875 -156.140625 C 66.945312 -162.253906 74.320312 -165.3125 83 -165.3125 L 192.15625 -165.3125 C 200.738281 -165.3125 208.085938 -162.253906 214.203125 -156.140625 C 220.328125 -150.023438 223.390625 -142.675781 223.390625 -134.09375 L 223.390625 -62.453125 C 223.390625 -53.773438 220.328125 -46.398438 214.203125 -40.328125 C 208.085938 -34.265625 200.738281 -31.234375 192.15625 -31.234375 Z M 192.15625 -31.234375 "/></g></g></g><g fill="#111418" fill-opacity="1"><g transform="translate(949.464717, 1431.610408)"><g><path d="M 281.328125 0 L 261.734375 0 L 188.59375 -146 L 115.453125 0 L 96.015625 0 L 4.109375 -196.40625 L 38.484375 -196.40625 L 106.28125 -51.359375 L 179.015625 -196.40625 L 198.328125 -196.40625 L 270.90625 -51.359375 L 338.84375 -196.40625 L 373.359375 -196.40625 Z M 281.328125 0 "/></g></g></g><g fill="#111418" fill-opacity="1"><g transform="translate(1325.535766, 1431.610408)"><g><path d="M 124.21875 0 L 93 0 L 93 -165.3125 L 4.109375 -165.3125 L 4.109375 -196.40625 L 213.25 -196.40625 L 213.25 -165.3125 L 124.21875 -165.3125 Z M 124.21875 0 "/></g></g></g><g fill="#111418" fill-opacity="1"><g transform="translate(1541.495531, 1431.610408)"><g><path d="M 245.84375 0 L 27.390625 0 L 27.390625 -196.40625 L 245.84375 -196.40625 L 245.84375 -165.3125 L 58.625 -165.3125 L 58.625 -113.8125 L 223.65625 -113.8125 L 223.65625 -82.59375 L 58.625 -82.59375 L 58.625 -31.234375 L 245.84375 -31.234375 Z M 245.84375 0 "/></g></g></g><g fill="#111418" fill-opacity="1"><g transform="translate(1806.488556, 1431.610408)"><g><path d="M 192.15625 0 C 209.414062 0 224.140625 -6.09375 236.328125 -18.28125 C 248.515625 -30.46875 254.609375 -45.191406 254.609375 -62.453125 L 223.390625 -62.453125 C 223.390625 -53.773438 220.328125 -46.398438 214.203125 -40.328125 C 208.085938 -34.265625 200.738281 -31.234375 192.15625 -31.234375 L 83 -31.234375 C 74.320312 -31.234375 66.945312 -34.265625 60.875 -40.328125 C 54.800781 -46.398438 51.765625 -53.773438 51.765625 -62.453125 L 51.765625 -134.09375 C 51.765625 -142.675781 54.800781 -150.023438 60.875 -156.140625 C 66.945312 -162.253906 74.320312 -165.3125 83 -165.3125 L 192.15625 -165.3125 C 200.738281 -165.3125 208.085938 -162.253906 214.203125 -156.140625 C 220.328125 -150.023438 223.390625 -142.675781 223.390625 -134.09375 L 254.609375 -134.09375 C 254.609375 -151.25 248.515625 -165.921875 236.328125 -178.109375 C 224.140625 -190.304688 209.414062 -196.40625 192.15625 -196.40625 L 83 -196.40625 C 65.738281 -196.40625 51.015625 -190.304688 38.828125 -178.109375 C 26.640625 -165.921875 20.546875 -151.25 20.546875 -134.09375 L 20.546875 -62.453125 C 20.546875 -45.191406 26.640625 -30.46875 38.828125 -18.28125 C 51.015625 -6.09375 65.738281 0 83 0 Z M 192.15625 0 "/></g></g></g><g fill="#111418" fill-opacity="1"><g transform="translate(2080.247248, 1431.610408)"><g><path d="M 255.15625 0 L 223.9375 0 L 223.9375 -82.71875 L 58.625 -82.71875 L 58.625 0 L 27.390625 0 L 27.390625 -196.40625 L 58.625 -196.40625 L 58.625 -113.8125 L 223.9375 -113.8125 L 223.9375 -196.40625 L 255.15625 -196.40625 Z M 255.15625 0 "/></g></g></g><g fill="#111418" fill-opacity="1"><g transform="translate(2361.403787, 1431.610408)"><g/></g></g><g transform="matrix(1, 0, 0, 1, 2343, 1179)"><g clip-path="url(#8d8bda16ea)"><g clip-path="url(#aa95744f9f)"><g fill="#008cba" fill-opacity="1"><g transform="translate(0.398032, 243.588423)"><g/></g></g></g><g fill="#008cba" fill-opacity="1"><g transform="translate(70.184835, 243.588423)"><g><path d="M 286.328125 0 L 248.53125 0 L 219.78125 -42.59375 L 70.65625 -42.59375 L 41.765625 0 L 4.109375 0 L 136.9375 -196.359375 L 153.5 -196.359375 Z M 198.6875 -73.8125 L 145.140625 -152.953125 L 91.609375 -73.8125 Z M 198.6875 -73.8125 "/></g></g></g><g fill="#008cba" fill-opacity="1"><g transform="translate(360.591568, 243.588423)"><g><path d="M 58.609375 0 L 58.609375 -196.359375 L 27.390625 -196.359375 L 27.390625 0 Z M 58.609375 0 "/></g></g></g></g></g></svg>